<svg xmlns="http://www.w3.org/2000/svg" width="800" height="870" viewBox="0 0 800 870" style="background:#0a0e14">
<title>graph diagram</title>
  <rect width="100%" height="100%" fill="#0a0e14"/>
  <text x="400" y="25" text-anchor="middle" fill="#e6edf3" font-family="sans-serif" font-size="16" font-weight="bold">gk-autoresearch (custom)</text>
  
    <path d="M 360,90 L 360,120 L 360,150" fill="none" stroke="#30363d" stroke-width="1.5"/>
    <path d="M 360,200 L 360,230 L 360,260" fill="none" stroke="#30363d" stroke-width="1.5"/>
    <path d="M 450,306.52173913043475 L 590,340 L 590,370" fill="none" stroke="#30363d" stroke-width="1.5"/>
    <path d="M 360,310 L 360,340 L 360,370" fill="none" stroke="#30363d" stroke-width="1.5"/>
    <path d="M 270,306.52173913043475 L 130,340 L 130,370" fill="none" stroke="#30363d" stroke-width="1.5"/>
    <path d="M 590,420 L 590,450 L 450,483.47826086956525" fill="none" stroke="#30363d" stroke-width="1.5"/>
    <path d="M 360,420 L 360,450 L 360,480" fill="none" stroke="#30363d" stroke-width="1.5"/>
    <path d="M 130,420 L 130,450 L 270,483.47826086956525" fill="none" stroke="#30363d" stroke-width="1.5"/>
    <path d="M 450,526.5217391304348 L 590,560 L 590,590" fill="none" stroke="#30363d" stroke-width="1.5"/>
    <path d="M 360,530 L 360,560 L 360,590" fill="none" stroke="#30363d" stroke-width="1.5"/>
    <path d="M 270,526.5217391304348 L 130,560 L 130,590" fill="none" stroke="#30363d" stroke-width="1.5"/>
    <path d="M 590,640 L 590,670 L 450,703.4782608695652" fill="none" stroke="#30363d" stroke-width="1.5"/>
    <path d="M 360,640 L 360,670 L 360,700" fill="none" stroke="#30363d" stroke-width="1.5"/>
    <path d="M 130,640 L 130,670 L 270,703.4782608695652" fill="none" stroke="#30363d" stroke-width="1.5"/>
  
    <g transform="translate(270,40)">
      <rect width="180" height="50" rx="8" fill="#0d1117" stroke="#a371f7" stroke-width="2"/>
      <text x="90" y="20" text-anchor="middle" fill="#a371f7" font-family="monospace" font-size="13" font-weight="bold">frame</text>
      <text x="90" y="38" text-anchor="middle" fill="#8b949e" font-family="monospace" font-size="11">agents-orchestrator · opus</text>
    </g>
    <g transform="translate(270,150)">
      <rect width="180" height="50" rx="8" fill="#0d1117" stroke="#58a6ff" stroke-width="2"/>
      <text x="90" y="20" text-anchor="middle" fill="#58a6ff" font-family="monospace" font-size="13" font-weight="bold">scout</text>
      <text x="90" y="38" text-anchor="middle" fill="#8b949e" font-family="monospace" font-size="11">software-architect · sonnet</text>
    </g>
    <g transform="translate(270,260)">
      <rect width="180" height="50" rx="8" fill="#0d1117" stroke="#a371f7" stroke-width="2"/>
      <text x="90" y="20" text-anchor="middle" fill="#a371f7" font-family="monospace" font-size="13" font-weight="bold">dispatch</text>
      <text x="90" y="38" text-anchor="middle" fill="#8b949e" font-family="monospace" font-size="11">agents-orchestrator · opus</text>
    </g>
    <g transform="translate(500,370)">
      <rect width="180" height="50" rx="8" fill="#0d1117" stroke="#58a6ff" stroke-width="2"/>
      <text x="90" y="20" text-anchor="middle" fill="#58a6ff" font-family="monospace" font-size="13" font-weight="bold">research-index</text>
      <text x="90" y="38" text-anchor="middle" fill="#8b949e" font-family="monospace" font-size="11">software-architect · sonnet</text>
    </g>
    <g transform="translate(270,370)">
      <rect width="180" height="50" rx="8" fill="#0d1117" stroke="#58a6ff" stroke-width="2"/>
      <text x="90" y="20" text-anchor="middle" fill="#58a6ff" font-family="monospace" font-size="13" font-weight="bold">research-retrieve</text>
      <text x="90" y="38" text-anchor="middle" fill="#8b949e" font-family="monospace" font-size="11">software-architect · sonnet</text>
    </g>
    <g transform="translate(40,370)">
      <rect width="180" height="50" rx="8" fill="#0d1117" stroke="#58a6ff" stroke-width="2"/>
      <text x="90" y="20" text-anchor="middle" fill="#58a6ff" font-family="monospace" font-size="13" font-weight="bold">research-extract</text>
      <text x="90" y="38" text-anchor="middle" fill="#8b949e" font-family="monospace" font-size="11">software-architect · sonnet</text>
    </g>
    <g transform="translate(270,480)">
      <rect width="180" height="50" rx="8" fill="#0d1117" stroke="#58a6ff" stroke-width="2"/>
      <text x="90" y="20" text-anchor="middle" fill="#58a6ff" font-family="monospace" font-size="13" font-weight="bold">merge</text>
      <text x="90" y="38" text-anchor="middle" fill="#8b949e" font-family="monospace" font-size="11">memory-curator · sonnet</text>
    </g>
    <g transform="translate(500,590)">
      <rect width="180" height="50" rx="8" fill="#0d1117" stroke="#58a6ff" stroke-width="2"/>
      <text x="90" y="20" text-anchor="middle" fill="#58a6ff" font-family="monospace" font-size="13" font-weight="bold">worker-index</text>
      <text x="90" y="38" text-anchor="middle" fill="#8b949e" font-family="monospace" font-size="11">data-engineer · sonnet</text>
    </g>
    <g transform="translate(270,590)">
      <rect width="180" height="50" rx="8" fill="#0d1117" stroke="#58a6ff" stroke-width="2"/>
      <text x="90" y="20" text-anchor="middle" fill="#58a6ff" font-family="monospace" font-size="13" font-weight="bold">worker-retrieve</text>
      <text x="90" y="38" text-anchor="middle" fill="#8b949e" font-family="monospace" font-size="11">data-engineer · sonnet</text>
    </g>
    <g transform="translate(40,590)">
      <rect width="180" height="50" rx="8" fill="#0d1117" stroke="#58a6ff" stroke-width="2"/>
      <text x="90" y="20" text-anchor="middle" fill="#58a6ff" font-family="monospace" font-size="13" font-weight="bold">worker-extract</text>
      <text x="90" y="38" text-anchor="middle" fill="#8b949e" font-family="monospace" font-size="11">data-engineer · sonnet</text>
    </g>
    <g transform="translate(270,700)">
      <rect width="180" height="50" rx="8" fill="#0d1117" stroke="#a371f7" stroke-width="2"/>
      <text x="90" y="20" text-anchor="middle" fill="#a371f7" font-family="monospace" font-size="13" font-weight="bold">verify</text>
      <text x="90" y="38" text-anchor="middle" fill="#8b949e" font-family="monospace" font-size="11">qa-engineer · opus</text>
    </g>
</svg>