<svg xmlns="http://www.w3.org/2000/svg" width="800" height="760" viewBox="0 0 800 760" style="background:#0a0e14">
<title>graph diagram</title>
  <rect width="100%" height="100%" fill="#0a0e14"/>
  <text x="400" y="25" text-anchor="middle" fill="#e6edf3" font-family="sans-serif" font-size="16" font-weight="bold">viewer-interactivity-upgrade (custom)</text>
  
    <path d="M 590,90 L 590,120 L 450,153.47826086956522" fill="none" stroke="#30363d" stroke-width="1.5"/>
    <path d="M 360,90 L 360,120 L 360,150" fill="none" stroke="#30363d" stroke-width="1.5"/>
    <path d="M 130,90 L 130,120 L 270,153.47826086956522" fill="none" stroke="#30363d" stroke-width="1.5"/>
    <path d="M 450,196.52173913043478 L 590,230 L 590,260" fill="none" stroke="#30363d" stroke-width="1.5"/>
    <path d="M 360,200 L 360,230 L 360,260" fill="none" stroke="#30363d" stroke-width="1.5"/>
    <path d="M 270,196.52173913043478 L 130,230 L 130,260" fill="none" stroke="#30363d" stroke-width="1.5"/>
    <path d="M 590,310 L 590,340 L 450,373.47826086956525" fill="none" stroke="#30363d" stroke-width="1.5"/>
    <path d="M 360,310 L 360,340 L 360,370" fill="none" stroke="#30363d" stroke-width="1.5"/>
    <path d="M 130,310 L 130,340 L 270,373.47826086956525" fill="none" stroke="#30363d" stroke-width="1.5"/>
    <path d="M 360,420 L 360,450 L 360,480" fill="none" stroke="#30363d" stroke-width="1.5"/>
    <path d="M 360,530 L 360,560 L 360,590" fill="none" stroke="#30363d" stroke-width="1.5"/>
  
    <g transform="translate(500,40)">
      <rect width="180" height="50" rx="8" fill="#0d1117" stroke="#58a6ff" stroke-width="2"/>
      <text x="90" y="20" text-anchor="middle" fill="#58a6ff" font-family="monospace" font-size="13" font-weight="bold">research-viz-engines</text>
      <text x="90" y="38" text-anchor="middle" fill="#8b949e" font-family="monospace" font-size="11">ui-ux-researcher · sonnet</text>
    </g>
    <g transform="translate(270,40)">
      <rect width="180" height="50" rx="8" fill="#0d1117" stroke="#58a6ff" stroke-width="2"/>
      <text x="90" y="20" text-anchor="middle" fill="#58a6ff" font-family="monospace" font-size="13" font-weight="bold">research-interaction-ux</text>
      <text x="90" y="38" text-anchor="middle" fill="#8b949e" font-family="monospace" font-size="11">ui-ux-researcher · sonnet</text>
    </g>
    <g transform="translate(40,40)">
      <rect width="180" height="50" rx="8" fill="#0d1117" stroke="#58a6ff" stroke-width="2"/>
      <text x="90" y="20" text-anchor="middle" fill="#58a6ff" font-family="monospace" font-size="13" font-weight="bold">research-launch-ops</text>
      <text x="90" y="38" text-anchor="middle" fill="#8b949e" font-family="monospace" font-size="11">data-engineer · sonnet</text>
    </g>
    <g transform="translate(270,150)">
      <rect width="180" height="50" rx="8" fill="#0d1117" stroke="#f0883e" stroke-width="2"/>
      <text x="90" y="20" text-anchor="middle" fill="#f0883e" font-family="monospace" font-size="13" font-weight="bold">consolidate-plan</text>
      <text x="90" y="38" text-anchor="middle" fill="#8b949e" font-family="monospace" font-size="11">software-architect · fable</text>
    </g>
    <g transform="translate(500,260)">
      <rect width="180" height="50" rx="8" fill="#0d1117" stroke="#58a6ff" stroke-width="2"/>
      <text x="90" y="20" text-anchor="middle" fill="#58a6ff" font-family="monospace" font-size="13" font-weight="bold">executor-viz</text>
      <text x="90" y="38" text-anchor="middle" fill="#8b949e" font-family="monospace" font-size="11">ui-ux-researcher · sonnet</text>
    </g>
    <g transform="translate(270,260)">
      <rect width="180" height="50" rx="8" fill="#0d1117" stroke="#58a6ff" stroke-width="2"/>
      <text x="90" y="20" text-anchor="middle" fill="#58a6ff" font-family="monospace" font-size="13" font-weight="bold">executor-ux</text>
      <text x="90" y="38" text-anchor="middle" fill="#8b949e" font-family="monospace" font-size="11">ui-ux-researcher · sonnet</text>
    </g>
    <g transform="translate(40,260)">
      <rect width="180" height="50" rx="8" fill="#0d1117" stroke="#58a6ff" stroke-width="2"/>
      <text x="90" y="20" text-anchor="middle" fill="#58a6ff" font-family="monospace" font-size="13" font-weight="bold">executor-ops</text>
      <text x="90" y="38" text-anchor="middle" fill="#8b949e" font-family="monospace" font-size="11">data-engineer · sonnet</text>
    </g>
    <g transform="translate(270,370)">
      <rect width="180" height="50" rx="8" fill="#0d1117" stroke="#f0883e" stroke-width="2"/>
      <text x="90" y="20" text-anchor="middle" fill="#f0883e" font-family="monospace" font-size="13" font-weight="bold">final-review</text>
      <text x="90" y="38" text-anchor="middle" fill="#8b949e" font-family="monospace" font-size="11">code-reviewer · fable</text>
    </g>
    <g transform="translate(270,480)">
      <rect width="180" height="50" rx="8" fill="#0d1117" stroke="#58a6ff" stroke-width="2"/>
      <text x="90" y="20" text-anchor="middle" fill="#58a6ff" font-family="monospace" font-size="13" font-weight="bold">fixer</text>
      <text x="90" y="38" text-anchor="middle" fill="#8b949e" font-family="monospace" font-size="11">code-reviewer · sonnet</text>
    </g>
    <g transform="translate(270,590)">
      <rect width="180" height="50" rx="8" fill="#0d1117" stroke="#f0883e" stroke-width="2"/>
      <text x="90" y="20" text-anchor="middle" fill="#f0883e" font-family="monospace" font-size="13" font-weight="bold">acceptance</text>
      <text x="90" y="38" text-anchor="middle" fill="#8b949e" font-family="monospace" font-size="11">qa-engineer · fable</text>
    </g>
</svg>